<svg xmlns="http://www.w3.org/2000/svg" viewBox="0 0 711.43 229.53"><defs><style>.cls-1{fill:#fff;}</style></defs><title>Front end</title><g id="Layer_2" data-name="Layer 2"><g id="Layer_1-2" data-name="Layer 1"><path class="cls-1" d="M0,227V89.3H17.45V212.08H77.8V227Z"/><path class="cls-1" d="M136.11,229.53a50.06,50.06,0,0,1-19.24-3.68,45.55,45.55,0,0,1-15.57-10.51,48.74,48.74,0,0,1-10.4-16.72,62.4,62.4,0,0,1-3.79-22.5A62,62,0,0,1,91,153.52a53.16,53.16,0,0,1,10.3-16.93A44.93,44.93,0,0,1,115.92,126a41.2,41.2,0,0,1,17-3.67,42.86,42.86,0,0,1,17.35,3.36,33.84,33.84,0,0,1,12.82,9.67A44.27,44.27,0,0,1,171,150.47a66.82,66.82,0,0,1,2.73,19.77c0,1.82,0,3.61-.1,5.36a25.89,25.89,0,0,1-.53,4.52h-69q1,16.4,10.2,26t23.87,9.56a40.26,40.26,0,0,0,13.56-2.2,60.12,60.12,0,0,0,11.88-5.79l6.1,11.36a87.18,87.18,0,0,1-14.93,7.36A51.94,51.94,0,0,1,136.11,229.53Zm-32.18-61.82H158.6q0-15.56-6.62-23.65T133.37,136A26.36,26.36,0,0,0,123,138.07a27.25,27.25,0,0,0-8.93,6.2,33.74,33.74,0,0,0-6.63,10A45.1,45.1,0,0,0,103.93,167.71Z"/><path class="cls-1" d="M216.34,227l-36.8-102.19h17.88l19.34,58q2.31,7.58,4.73,15.14t4.73,14.93h.84q2.31-7.35,4.63-14.93t4.63-15.14l19.34-58h17L236.53,227Z"/><path class="cls-1" d="M327,229.53a50.1,50.1,0,0,1-19.24-3.68,45.51,45.51,0,0,1-15.56-10.51,48.91,48.91,0,0,1-10.41-16.72,62.62,62.62,0,0,1-3.78-22.5,61.74,61.74,0,0,1,3.89-22.6,52.8,52.8,0,0,1,10.3-16.93A44.93,44.93,0,0,1,306.78,126a41.17,41.17,0,0,1,17-3.67,42.89,42.89,0,0,1,17.35,3.36A33.84,33.84,0,0,1,354,135.33a44.62,44.62,0,0,1,7.89,15.14,66.82,66.82,0,0,1,2.73,19.77c0,1.82,0,3.61-.1,5.36a26.89,26.89,0,0,1-.53,4.52H295q1,16.4,10.2,26t23.86,9.56a40.28,40.28,0,0,0,13.57-2.2,60.39,60.39,0,0,0,11.88-5.79L360.6,219a86.81,86.81,0,0,1-14.93,7.36A51.87,51.87,0,0,1,327,229.53Zm-32.17-61.82h54.67q0-15.56-6.62-23.65T324.23,136a26.32,26.32,0,0,0-10.41,2.11,27.29,27.29,0,0,0-8.94,6.2,33.92,33.92,0,0,0-6.62,10A45.1,45.1,0,0,0,294.79,167.71Z"/><path class="cls-1" d="M403.6,229.53q-9.89,0-14.09-5.89t-4.2-17.24V89.3h17.24V207.66q0,4.22,1.47,5.89a4.38,4.38,0,0,0,3.37,1.68H409a8.48,8.48,0,0,0,2.21-.42l2.31,13a14.86,14.86,0,0,1-4,1.26A34.06,34.06,0,0,1,403.6,229.53Z"/><path class="cls-1" d="M534,229.53q-26.72,0-40.8-15.77t-14.08-50.25V89.91H510.2v76.75q0,20.19,6.1,28.18t17.67,8q11.55,0,17.87-8t6.31-28.18V89.91H588v73.6q0,34.49-13.77,50.25T534,229.53Z"/><path class="cls-1" d="M707.12,113.15a36.56,36.56,0,0,0-11.67-13.67,48.06,48.06,0,0,0-17.24-7.36A97.43,97.43,0,0,0,657,89.91h-47.1V227h30.91V180.54h17a75.58,75.58,0,0,0,20.61-2.73,49.66,49.66,0,0,0,17-8.42,40.49,40.49,0,0,0,11.67-14.5q4.3-8.83,4.31-20.82Q711.43,121.67,707.12,113.15Zm-28.69,16.42v21.71H667.55V137.89l-17.69,17.68-7.69-7.69,18.32-18.31H645.84V118.7h32.59Z"/><path class="cls-1" d="M1.46,1.13H37V7.71H9.26V28.58h23.5v6.58H9.26V62.79H1.46Z"/><path class="cls-1" d="M78.28,62.79l-14.86-26H52.24v26h-7.8V1.13H63.71A40.14,40.14,0,0,1,72.4,2a18.53,18.53,0,0,1,6.86,3,14.17,14.17,0,0,1,4.47,5.36,18.47,18.47,0,0,1,1.6,8.08q0,7.24-3.76,11.57a19.22,19.22,0,0,1-10.06,5.92l15.6,26.88Zm-26-32.43H62.58q7.23,0,11.09-3t3.85-9q0-6.11-3.85-8.55T62.58,7.43H52.24Z"/><path class="cls-1" d="M118.29,63.92a24.86,24.86,0,0,1-10.67-2.26,23.69,23.69,0,0,1-8.32-6.44,30,30,0,0,1-5.4-10.15A43.29,43.29,0,0,1,92,31.68a42.39,42.39,0,0,1,1.93-13.3,29.17,29.17,0,0,1,5.4-10,23.29,23.29,0,0,1,8.32-6.25A25.89,25.89,0,0,1,118.29,0,25.44,25.44,0,0,1,129,2.21a24.11,24.11,0,0,1,8.37,6.3,28.87,28.87,0,0,1,5.45,10,42.42,42.42,0,0,1,1.93,13.21,43.6,43.6,0,0,1-1.93,13.39,29.71,29.71,0,0,1-5.45,10.15A24.14,24.14,0,0,1,129,61.66,24.86,24.86,0,0,1,118.29,63.92Zm0-6.86a15.56,15.56,0,0,0,7.47-1.79,16.82,16.82,0,0,0,5.74-5.12,25.42,25.42,0,0,0,3.71-8,38.42,38.42,0,0,0,1.32-10.48,37.53,37.53,0,0,0-1.32-10.34,23.74,23.74,0,0,0-3.71-7.8,16.89,16.89,0,0,0-5.74-4.94,16.9,16.9,0,0,0-14.94,0,16.89,16.89,0,0,0-5.74,4.94,23.94,23.94,0,0,0-3.71,7.8,37.54,37.54,0,0,0-1.31,10.34,38.43,38.43,0,0,0,1.31,10.48,25.64,25.64,0,0,0,3.71,8,16.82,16.82,0,0,0,5.74,5.12A15.56,15.56,0,0,0,118.29,57.06Z"/><path class="cls-1" d="M154.76,1.13h8.09l22.27,38.73,6.68,12.78h.37c-.18-3.13-.39-6.38-.61-9.73s-.33-6.66-.33-9.92V1.13h7.43V62.79h-8.08L168.2,24l-6.67-12.69h-.38q.38,4.7.71,9.54t.33,9.73V62.79h-7.43Z"/><path class="cls-1" d="M224.8,7.71H206.19V1.13h45.12V7.71H232.7V62.79h-7.9Z"/><path class="cls-1" d="M279.51,1.13H315V7.71H287.31V27.07h23.41v6.68H287.31V56.12H316v6.67H279.51Z"/><path class="cls-1" d="M324.34,1.13h8.09l22.28,38.73,6.67,12.78h.38c-.19-3.13-.4-6.38-.61-9.73s-.33-6.66-.33-9.92V1.13h7.42V62.79h-8.08L337.79,24l-6.68-12.69h-.37q.38,4.7.7,9.54t.33,9.73V62.79h-7.43Z"/><path class="cls-1" d="M381.63,1.13H397q14.29,0,21.72,7.89t7.42,22.66a42.08,42.08,0,0,1-1.88,13.11,26.33,26.33,0,0,1-5.54,9.78,24.05,24.05,0,0,1-9,6.11,33.32,33.32,0,0,1-12.31,2.11H381.63ZM396.48,56.4q10.81,0,16.21-6.49t5.41-18.23q0-11.76-5.41-18t-16.21-6.2h-7.05V56.4Z"/></g></g></svg>