<svg xmlns="http://www.w3.org/2000/svg" viewBox="0 0 156.6 38.4"><g><path fill="#FFFFFF" d="M54.2 17.2c-.7-1-1.5-1.7-2.5-2.2-1-.5-2.1-.7-3.1-.7-1.2 0-2.2.2-3.1.6-.9.4-1.7.9-2.4 1.6-.7.7-1.2 1.5-1.5 2.5-.4.9-.6 2-.6 3.1s.2 2.1.6 3.1c.4.9.9 1.8 1.5 2.5.7.7 1.5 1.2 2.4 1.6.9.4 2 .6 3.1.6s2.1-.2 3.1-.7c1-.5 1.8-1.2 2.5-2.1h.1v2.5h2.1V9.8h-2.1v7.4zm-.2 7.2c-.3.7-.7 1.4-1.2 1.9s-1.1.9-1.8 1.2c-.7.3-1.5.5-2.3.5-.9 0-1.7-.2-2.4-.5s-1.3-.7-1.8-1.3c-.5-.5-.8-1.2-1.1-1.9-.3-.7-.4-1.5-.4-2.3 0-.8.1-1.6.4-2.3.3-.7.6-1.4 1.1-1.9.5-.5 1.1-1 1.8-1.3.7-.3 1.5-.5 2.4-.5.8 0 1.6.2 2.3.5.7.3 1.3.7 1.8 1.3.5.5.9 1.2 1.2 1.9.3.7.4 1.5.4 2.4.1.8-.1 1.6-.4 2.3zm17.7 1.7v-6.5c0-.9-.1-1.7-.4-2.4-.3-.7-.7-1.2-1.2-1.7-.5-.4-1.1-.8-1.8-1-.7-.2-1.4-.3-2.2-.3-1.3 0-2.4.2-3.4.6-1 .4-1.8.9-2.4 1.5l1.2 1.4c.5-.5 1.2-.9 1.9-1.3.8-.3 1.6-.5 2.5-.5 1.3 0 2.3.3 2.9.9.7.6 1 1.6 1 2.9v.5c-1.3 0-2.6 0-3.9.1-1.3.1-2.4.3-3.3.6-1 .3-1.7.8-2.3 1.5-.6.7-.9 1.6-.9 2.7 0 .8.2 1.5.5 2.1.3.6.7 1 1.2 1.4.5.4 1 .6 1.6.8.6.2 1.2.2 1.8.2 1.2 0 2.2-.2 3.1-.6.9-.4 1.6-1.1 2.3-2.1h.1c0 .4 0 .8.1 1.2 0 .4.1.8.2 1.2H72c-.1-.4-.1-.9-.2-1.5-.1-.5-.1-1.1-.1-1.7zm-2-2.9c0 .7-.1 1.3-.3 1.9-.2.6-.5 1.1-.9 1.6s-.9.8-1.5 1.1c-.6.3-1.3.4-2 .4-.4 0-.8 0-1.2-.1-.4-.1-.8-.3-1.1-.5-.3-.2-.6-.5-.8-.9-.2-.4-.3-.8-.3-1.3 0-.7.2-1.3.7-1.7.5-.4 1.1-.7 1.8-1 .7-.2 1.5-.4 2.4-.4.9-.1 1.8-.1 2.7-.1h.6v1zM86.1 9.8H84v4.9h-5.5v-3.3c0-.5 0-1 .1-1.5 0-.5.2-.9.4-1.2.2-.3.5-.6.9-.8.4-.2.8-.3 1.4-.3.3 0 .6 0 .8.1.2 0 .5.1.7.2l.4-1.9c-.3-.1-.6-.1-.9-.2h-.9c-1.7 0-3 .5-3.8 1.5-.8 1-1.2 2.3-1.2 4v3.6h-3.1v1.8h3.1v13h2.1v-13H84v9.2c0 .8.1 1.5.4 2 .2.5.6.9.9 1.2.4.3.8.5 1.2.6.4.1.9.2 1.3.2.5 0 .9 0 1.3-.1l1.2-.3-.1-1.9c-.3.1-.6.3-.9.3-.3.1-.6.1-.9.1-.3 0-.6 0-.9-.1-.3-.1-.5-.2-.7-.4-.2-.2-.4-.5-.5-.8-.1-.4-.2-.8-.2-1.4v-8.6h4.2v-1.8h-4.2V9.8zm9.6 8.8c.3-.5.8-.8 1.3-1.1.5-.3 1.1-.4 1.8-.4.6 0 1.2.1 1.8.4.6.3 1 .6 1.3 1.1l2.6-2.3c-.6-.7-1.4-1.3-2.5-1.7-1-.4-2.1-.6-3.2-.6s-2.2.2-3.1.6c-1 .4-1.8.9-2.6 1.6-.7.7-1.3 1.5-1.8 2.5-.4 1-.6 2.1-.6 3.3 0 1.3.2 2.4.6 3.4.4 1 1 1.8 1.8 2.5.7.7 1.6 1.2 2.6 1.6 1 .4 2.1.5 3.2.5s2.2-.2 3.2-.6c1-.4 1.8-.9 2.4-1.6l-2.4-2.4c-.4.4-.8.8-1.4 1-.6.2-1.2.3-1.8.3-.7 0-1.3-.1-1.9-.4-.5-.3-1-.7-1.3-1.1-.4-.5-.6-1-.8-1.6-.2-.6-.3-1.2-.3-1.8 0-.6.1-1.2.3-1.8.2-.5.4-1 .8-1.4zm23-2.6c-.7-.7-1.6-1.2-2.6-1.6-1-.4-2.1-.6-3.2-.6s-2.2.2-3.2.6c-1 .4-1.9.9-2.6 1.6-.7.7-1.3 1.5-1.8 2.5-.4 1-.6 2.1-.6 3.3 0 1.2.2 2.3.6 3.3.4 1 1 1.8 1.8 2.5.7.7 1.6 1.3 2.6 1.7 1 .4 2.1.6 3.2.6s2.2-.2 3.2-.6c1-.4 1.9-1 2.6-1.7.7-.7 1.3-1.6 1.8-2.5.4-1 .6-2.1.6-3.3 0-1.2-.2-2.3-.6-3.3-.5-.9-1.1-1.8-1.8-2.5zm-1.7 7.6c-.2.6-.4 1.1-.8 1.6s-.8.8-1.4 1.1c-.5.3-1.2.4-2 .4s-1.4-.1-2-.4c-.5-.3-1-.7-1.4-1.1-.4-.5-.6-1-.8-1.6-.2-.6-.3-1.2-.3-1.8 0-.6.1-1.2.3-1.8.2-.6.4-1.1.8-1.6s.8-.8 1.4-1.1c.5-.3 1.2-.4 2-.4s1.4.1 2 .4c.5.3 1 .7 1.4 1.1.4.5.6 1 .8 1.6.2.6.3 1.2.3 1.8l-.3 1.8zm18.1-7.4l-.8-.8c-.3-.3-.6-.5-1.1-.8-.4-.2-.9-.4-1.4-.6-.5-.2-1.2-.2-1.9-.2-1.1 0-2.1.2-3 .6-.9.4-1.7 1-2.3 1.7-.7.7-1.2 1.6-1.5 2.5-.4 1-.5 2-.5 3.1s.2 2.2.5 3.1c.3 1 .8 1.8 1.5 2.6.6.7 1.4 1.3 2.3 1.7.9.4 2 .6 3.1.6s2.1-.2 3-.7c.9-.5 1.7-1.1 2.2-2h.1v2.3h3.6V9.8h-3.8v6.4zm-.2 7.4c-.2.6-.5 1.1-.9 1.6s-.9.8-1.4 1.1c-.5.3-1.2.4-1.9.4s-1.4-.1-1.9-.4c-.5-.3-1-.7-1.4-1.1-.4-.5-.6-1-.8-1.6-.2-.6-.3-1.2-.3-1.8 0-.6.1-1.2.3-1.8.2-.6.4-1.1.8-1.6s.8-.8 1.4-1.1c.5-.3 1.2-.4 1.9-.4s1.3.1 1.9.4c.5.3 1 .7 1.4 1.1.4.5.7 1 .9 1.6.2.6.3 1.2.3 1.8 0 .7-.1 1.2-.3 1.8zm21.1-5.1c-.4-1-.9-1.9-1.5-2.6-.7-.7-1.4-1.2-2.3-1.5-.9-.3-1.9-.5-2.9-.5-1.1 0-2.2.2-3.2.6-1 .4-1.8.9-2.5 1.6-.7.7-1.3 1.6-1.7 2.6-.4 1-.6 2.1-.6 3.3 0 1.2.2 2.4.6 3.3.4 1 1 1.8 1.7 2.5s1.6 1.2 2.6 1.6c1 .4 2.1.6 3.2.6 2.8 0 5-1 6.5-3l-2.5-2c-.4.6-1 1.1-1.6 1.4-.7.3-1.5.5-2.4.5-.5 0-1.1-.1-1.6-.3-.5-.2-1-.4-1.4-.8-.4-.3-.7-.7-1-1.2-.2-.5-.4-1-.4-1.5h11.5v-1c.1-1.4-.1-2.6-.5-3.6zm-11 1.9c.1-1.1.5-2 1.3-2.6.8-.7 1.8-1 2.9-1 .6 0 1.1.1 1.6.3.5.2.8.5 1.1.8.3.3.5.7.6 1.2.1.4.2.9.2 1.4H145zM15.4 1l-1.8 4.7 3.6-.6z"/><path fill="#FFFFFF" d="M30.8 34.3L21.1 0l-2.7 5.9L0 9.2v17l4-3.7 1.5 2.2 3.1-3 1.1 1.6 2.5-2.4-1.1 17.4H32l1.7-6.2-2.9 2.2zm-29-23.7l-.7 2L1 10l3-.5-2.2 1.1zm15 .4c-.9 0-1.7-.7-1.8-1.6l3.7-.7v.4c-.1 1.1-.9 1.9-1.9 1.9z"/></g></svg>
